# xmcd
#
# Track frame offsets:
#	150
#	18818
#	39022
#	54030
#	73150
#	88907
#	105335
#	119454
#	135131
#	149171
#	165241
#	182551
#	197095
#	213213
#	228896
#
# Disc length: 3231 seconds
#
# Revision: 0
# Processed by: cddbd v1.5.2PL0 Copyright (c) Steve Scherf et al.
# Submitted via: audiograbber 1.83.01
#
DISCID=b90c9d0f
DTITLE=Various Artist - CB60367
DYEAR=1900
DGENRE=Country
TTITLE0=Paisley, Brad - Paisley, Brad
TTITLE1=Chesney, Kenny - Flip-Flop Summer
TTITLE2=Messina, Jo Dee - Biker Chick
TTITLE3=Rascal Flatts - Take Me There
TTITLE4=Montgomery Gentry - What Do Ya Think About That
TTITLE5=Turner, Josh - Firecracker
TTITLE6=Peck, Danielle - Bad For Me
TTITLE7=Emerson Drive - You Still Own Me
TTITLE8=Cagle, Chris - What Kinda Gone
TTITLE9=Hanson, Jennifer - Joyride
TTITLE10=Allan, Gary - Watching Airplanes
TTITLE11=Big and Rich - Loud
TTITLE12=Crossin' Dixon - Guitar Slinger
TTITLE13=Shaffer, Lisa - Just One
TTITLE14=Chesnutt, Mark - Rollin' With The Flow
EXTD=
EXTT0=
EXTT1=
EXTT2=
EXTT3=
EXTT4=
EXTT5=
EXTT6=
EXTT7=
EXTT8=
EXTT9=
EXTT10=
EXTT11=
EXTT12=
EXTT13=
EXTT14=
PLAYORDER=
